<svg width="259" height="259" viewBox="0 0 259 259" fill="none" xmlns="http://www.w3.org/2000/svg">
<circle cx="129.5" cy="129.5" r="129.5" fill="#B9EEFF"/>
<path d="M161.4 62.8C161.396 61.4221 160.847 60.1019 159.872 59.1276C158.898 58.1533 157.578 57.6041 156.2 57.6H82.958C82.2719 57.6003 81.5927 57.7359 80.9592 57.9992C80.3256 58.2624 79.7502 58.648 79.266 59.134L64.134 74.266C63.648 74.7502 63.2624 75.3256 62.9992 75.9592C62.7359 76.5927 62.6003 77.2719 62.6 77.958V187.6C62.6041 188.978 63.1533 190.298 64.1276 191.272C65.1019 192.247 66.4221 192.796 67.8 192.8H161.4V62.8Z" fill="#D6DBE3"/>
<path d="M80.8 58.068V70.6C80.7959 71.9779 80.2467 73.2981 79.2724 74.2724C78.2981 75.2467 76.9779 75.7959 75.6 75.8H63.068C63.3287 75.229 63.6897 74.7094 64.134 74.266L79.266 59.134C79.7094 58.6897 80.229 58.3287 80.8 58.068Z" fill="#F0F2F5"/>
<path d="M148.4 109.6H114.6V75.8C123.564 75.8 132.161 79.361 138.5 85.6998C144.839 92.0385 148.4 100.636 148.4 109.6Z" fill="#FCC10A"/>
<path d="M148.4 109.6C148.404 116.708 146.156 123.635 141.978 129.386L134.386 136.978C127.883 141.693 119.91 143.932 111.903 143.293C103.896 142.655 96.3798 139.18 90.706 133.494L114.6 109.6H148.4Z" fill="#31B791"/>
<path d="M114.6 109.6L90.706 133.494C85.689 128.476 82.3769 122.008 81.2384 115.004C80.0999 108.001 81.1926 100.816 84.362 94.468L114.6 109.6Z" fill="#2783EC"/>
<path d="M114.6 75.8V109.6L84.362 94.468C87.1719 88.8557 91.489 84.1366 96.8297 80.8394C102.17 77.5423 108.324 75.7973 114.6 75.8Z" fill="#9E82EC"/>
<path d="M169.2 208.4C193.611 208.4 213.4 188.611 213.4 164.2C213.4 139.789 193.611 120 169.2 120C144.789 120 125 139.789 125 164.2C125 188.611 144.789 208.4 169.2 208.4Z" fill="#F5AB01"/>
<path d="M169.2 198C187.867 198 203 182.867 203 164.2C203 145.533 187.867 130.4 169.2 130.4C150.533 130.4 135.4 145.533 135.4 164.2C135.4 182.867 150.533 198 169.2 198Z" fill="#FCC10A"/>
<path d="M90.706 133.494L90.68 133.52Z" fill="#31B791"/>
<path d="M171.8 161.86V146.478C173.316 147.014 174.629 148.005 175.559 149.316C176.49 150.626 176.993 152.193 177 153.8C177 154.49 177.274 155.151 177.762 155.638C178.249 156.126 178.91 156.4 179.6 156.4C180.29 156.4 180.951 156.126 181.438 155.638C181.926 155.151 182.2 154.49 182.2 153.8C182.196 150.804 181.16 147.901 179.265 145.581C177.371 143.26 174.734 141.663 171.8 141.06V140.8C171.8 140.11 171.526 139.449 171.038 138.962C170.551 138.474 169.89 138.2 169.2 138.2C168.51 138.2 167.849 138.474 167.362 138.962C166.874 139.449 166.6 140.11 166.6 140.8V141.06C163.661 141.657 161.019 143.251 159.121 145.573C157.224 147.895 156.187 150.801 156.187 153.8C156.187 156.799 157.224 159.705 159.121 162.027C161.019 164.349 163.661 165.943 166.6 166.54V181.924C165.084 181.388 163.771 180.397 162.84 179.086C161.909 177.775 161.406 176.208 161.4 174.6C161.4 173.91 161.126 173.249 160.638 172.762C160.151 172.274 159.49 172 158.8 172C158.11 172 157.449 172.274 156.962 172.762C156.474 173.249 156.2 173.91 156.2 174.6C156.204 177.596 157.24 180.499 159.135 182.819C161.029 185.14 163.666 186.737 166.6 187.34V187.6C166.6 188.29 166.874 188.951 167.362 189.438C167.849 189.926 168.51 190.2 169.2 190.2C169.89 190.2 170.551 189.926 171.038 189.438C171.526 188.951 171.8 188.29 171.8 187.6V187.34C174.739 186.743 177.381 185.149 179.279 182.827C181.176 180.505 182.213 177.599 182.213 174.6C182.213 171.601 181.176 168.695 179.279 166.373C177.381 164.051 174.739 162.457 171.8 161.86ZM161.4 153.8C161.407 152.193 161.91 150.626 162.841 149.316C163.771 148.005 165.084 147.014 166.6 146.478V161.122C165.084 160.586 163.771 159.595 162.841 158.284C161.91 156.974 161.407 155.407 161.4 153.8ZM171.8 181.922V167.278C173.32 167.808 174.637 168.797 175.569 170.109C176.502 171.421 177.002 172.991 177.002 174.6C177.002 176.209 176.502 177.779 175.569 179.091C174.637 180.403 173.32 181.392 171.8 181.922Z" fill="#F5AB01"/>
<path d="M91.2 179.8C90.5104 179.8 89.8491 179.526 89.3615 179.038C88.8739 178.551 88.6 177.89 88.6 177.2V166.8C88.6 166.11 88.8739 165.449 89.3615 164.962C89.8491 164.474 90.5104 164.2 91.2 164.2C91.8895 164.2 92.5509 164.474 93.0385 164.962C93.526 165.449 93.8 166.11 93.8 166.8V177.2C93.8 177.89 93.526 178.551 93.0385 179.038C92.5509 179.526 91.8895 179.8 91.2 179.8Z" fill="#2783EC"/>
<path d="M101.6 179.8C100.91 179.8 100.249 179.526 99.7615 179.038C99.2739 178.551 99 177.89 99 177.2V156.4C99 155.71 99.2739 155.049 99.7615 154.562C100.249 154.074 100.91 153.8 101.6 153.8C102.29 153.8 102.951 154.074 103.438 154.562C103.926 155.049 104.2 155.71 104.2 156.4V177.2C104.2 177.89 103.926 178.551 103.438 179.038C102.951 179.526 102.29 179.8 101.6 179.8Z" fill="#31B791"/>
<path d="M114.6 179.8H80.8C80.1104 179.8 79.4491 179.526 78.9615 179.038C78.4739 178.551 78.2 177.89 78.2 177.2V151.2C78.2 150.51 78.4739 149.849 78.9615 149.361C79.4491 148.874 80.1104 148.6 80.8 148.6C81.4896 148.6 82.1509 148.874 82.6385 149.361C83.1261 149.849 83.4 150.51 83.4 151.2V174.6H114.6C115.29 174.6 115.951 174.874 116.438 175.361C116.926 175.849 117.2 176.51 117.2 177.2C117.2 177.89 116.926 178.551 116.438 179.038C115.951 179.526 115.29 179.8 114.6 179.8Z" fill="#8991A0"/>
<path d="M181.438 71.3618C180.951 70.8743 180.289 70.6005 179.6 70.6005C178.911 70.6005 178.249 70.8743 177.762 71.3618L169.962 79.1618C169.488 79.6521 169.226 80.3089 169.232 80.9906C169.238 81.6723 169.511 82.3244 169.993 82.8065C170.476 83.2886 171.128 83.562 171.809 83.5679C172.491 83.5738 173.148 83.3118 173.638 82.8382L177 79.4764V109.6C177 110.29 177.274 110.951 177.762 111.438C178.249 111.926 178.91 112.2 179.6 112.2C180.29 112.2 180.951 111.926 181.438 111.438C181.926 110.951 182.2 110.29 182.2 109.6V79.4764L185.562 82.8382C186.052 83.3118 186.709 83.5738 187.391 83.5679C188.072 83.562 188.724 83.2886 189.207 82.8065C189.689 82.3244 189.962 81.6723 189.968 80.9906C189.974 80.3089 189.712 79.6521 189.238 79.1618L181.438 71.3618Z" fill="#B9BFCC"/>
<path d="M215.891 90.8227L212.732 80.2563C212.534 79.5964 212.083 79.0418 211.477 78.7142C210.871 78.3866 210.16 78.3129 209.5 78.5091L198.931 81.6681C198.284 81.8763 197.743 82.3299 197.426 82.9317C197.11 83.5334 197.041 84.2354 197.236 84.8871C197.43 85.5388 197.872 86.0883 198.467 86.4178C199.062 86.7473 199.763 86.8306 200.418 86.6498L204.973 85.2874L190.673 111.807C190.363 112.413 190.303 113.115 190.505 113.765C190.707 114.414 191.155 114.958 191.754 115.281C192.352 115.604 193.053 115.679 193.707 115.491C194.36 115.303 194.914 114.866 195.249 114.275L209.549 87.7547L210.912 92.3125C211.072 92.8484 211.401 93.3181 211.85 93.6521C212.299 93.986 212.843 94.1664 213.403 94.1664C213.655 94.1669 213.905 94.1301 214.146 94.0572C214.806 93.8593 215.361 93.4074 215.688 92.801C216.015 92.1945 216.088 91.483 215.891 90.8227Z" fill="#B9BFCC"/>
</svg>
