<svg width="259" height="259" viewBox="0 0 259 259" fill="none" xmlns="http://www.w3.org/2000/svg">
<circle cx="129.5" cy="129.5" r="129.5" fill="#B9EEFF"/>
<path d="M122.757 87.9664C122.151 87.9664 121.554 87.6886 121.168 87.1635C119.376 84.7285 116.187 81.9353 111.169 82.4712C105.261 83.1004 100.874 81.2203 98.2335 79.5325C97.3165 78.9464 97.0485 77.7279 97.6344 76.8109C98.2202 75.8937 99.4392 75.6258 100.356 76.2117C102.465 77.5595 105.981 79.0611 110.752 78.552C117.993 77.7832 122.374 82.1531 124.342 84.8275C124.987 85.7039 124.8 86.9377 123.923 87.5828C123.571 87.8414 123.162 87.9664 122.757 87.9664Z" fill="#FFD064"/>
<path d="M102.125 98.4312C101.773 98.4312 101.418 98.3373 101.096 98.1396C100.168 97.5703 99.878 96.3569 100.447 95.4292C102.973 91.3142 107.602 88.486 113.834 87.2504C118.378 86.3498 122.191 86.5964 122.35 86.6076C123.436 86.6821 124.256 87.6226 124.181 88.7084C124.107 89.7935 123.164 90.6071 122.083 90.5398C121.946 90.5306 108.565 89.7373 103.806 97.491C103.434 98.0973 102.787 98.4312 102.125 98.4312Z" fill="#FFD064"/>
<path d="M131.829 173.943C164.193 173.943 182.088 126.472 130.981 89.8075C129.709 88.8954 128.954 87.4269 128.972 85.8623C128.986 84.5694 129.395 83.3142 130.137 82.2549C132.529 78.8382 135.973 72.9935 138.039 68.286C138.533 67.1585 137.825 65.9459 136.502 65.9459C133.432 65.9462 133.432 63.9373 130.363 63.9373C127.293 63.9373 127.293 65.9462 124.223 65.9462C121.607 65.9462 120.534 63.6954 119.262 65.3325C115.553 70.1064 128.257 86.8944 128.257 86.8944C72.1482 123.78 90.2396 173.944 123.367 173.944H131.829V173.943Z" fill="#EABC6B"/>
<path d="M144.552 86.8941C144.552 86.8941 157.445 70.1605 153.737 65.3603C152.474 63.7243 151.396 65.9462 148.783 65.9462C145.713 65.9459 145.713 63.9373 142.642 63.9373C139.572 63.9373 139.572 65.9459 136.502 65.9459C136.351 65.9459 136.213 65.9375 136.076 65.9281C134.843 71.2157 129.284 79.4532 126.103 83.8639C127.355 85.7022 128.257 86.8939 128.257 86.8939C127.509 87.3859 126.776 87.8807 126.054 88.3773C179.663 125.225 161.725 173.943 128.939 173.943H149.64C182.868 173.943 200.847 123.903 144.552 86.8941Z" fill="#E8AE4D"/>
<path d="M146.949 92.8459C139.457 94.738 132.056 94.738 124.563 92.8459C121.955 92.1873 120.477 89.2548 121.415 86.5891C121.426 86.5592 121.436 86.5294 121.446 86.4995C122.233 84.2646 124.465 83.0104 126.652 83.5596C132.787 85.0997 138.723 85.1002 144.859 83.5596C147.047 83.0104 149.278 84.2646 150.065 86.4995C150.076 86.5294 150.086 86.5592 150.096 86.5891C151.035 89.2548 149.557 92.1873 146.949 92.8459Z" fill="#FFE07D"/>
<path d="M76.5081 182.55L105.039 193.169C107.462 194.071 110.027 194.533 112.613 194.533H142.016C146.131 194.533 150.161 193.364 153.637 191.162L190.453 167.833C192.882 165.676 193.332 162.051 191.505 159.366C189.506 156.427 186.198 155.917 182.559 157.638L146.715 173.42L146.757 167.604C146.282 162.831 142.607 159 137.857 158.328L116.03 155.815C110.994 155.103 108.478 153.415 104.088 150.847C98.0955 147.342 91.2775 145.494 84.3345 145.494H76.5081V182.55Z" fill="#FFDDCE"/>
<path d="M103.307 187.511C105.854 188.459 108.55 188.945 111.268 188.945H142.179C145.47 188.945 148.709 188.232 151.679 186.872L173.293 173.175C175.302 171.903 176.576 169.688 176.511 167.311C176.476 166.051 176.091 164.79 175.336 163.68C175.336 163.68 174.678 162.553 174.002 161.405L146.715 173.42L146.757 167.604C146.282 162.831 142.607 159 137.857 158.328L116.03 155.815C110.994 155.103 108.478 153.415 104.088 150.847C98.0955 147.342 91.2775 145.494 84.3345 145.494H76.5081V177.536L103.307 187.511Z" fill="#FFDDCE"/>
<path d="M191.505 159.366C189.505 156.427 186.198 155.917 182.558 157.638L172.699 161.979C173.177 162.734 173.556 163.338 173.556 163.338C175.384 166.023 174.933 169.648 172.504 171.805L151.052 185.398C148.227 186.691 145.146 187.37 142.016 187.37H112.613C110.027 187.37 107.462 186.908 105.039 186.006L76.5081 175.386V182.55L105.039 193.169C107.462 194.071 110.027 194.533 112.613 194.533H136.636H142.017C146.131 194.533 150.162 193.364 153.637 191.162L190.453 167.833C192.882 165.676 193.332 162.051 191.505 159.366Z" fill="#FFCBBE"/>
<path d="M144.081 161.613L144.08 161.754L144.172 161.713C144.142 161.679 144.111 161.647 144.081 161.613Z" fill="#F5DBCC"/>
<path d="M146.714 173.416H124.426C123.338 173.416 122.456 172.534 122.456 171.446C122.456 170.357 123.338 169.475 124.426 169.475H146.743L146.714 173.416Z" fill="#FFCBBE"/>
<path d="M82.6475 188.233C82.6475 190.303 80.9694 191.981 78.8992 191.981H69.8529C67.7827 191.981 66.1046 190.303 66.1046 188.233V142.336C66.1046 140.266 67.7827 138.588 69.8529 138.588H78.8992C80.9694 138.588 82.6475 140.266 82.6475 142.336V188.233Z" fill="#407093"/>
<path d="M140.745 125.008C139.842 124.689 139.012 124.384 138.246 124.089V111.524C140.577 111.911 141.976 113.117 142.078 113.208C142.879 113.936 144.118 113.882 144.852 113.086C145.59 112.285 145.54 111.039 144.74 110.301C144.601 110.173 142.188 107.998 138.245 107.544V104.742C138.245 103.654 137.363 102.772 136.275 102.772C135.186 102.772 134.304 103.654 134.304 104.742V107.704C133.829 107.795 133.342 107.911 132.842 108.061C129.499 109.068 127 111.935 126.321 115.542C125.704 118.815 126.741 121.962 129.029 123.757C130.342 124.787 131.995 125.73 134.304 126.738V142.323C132.023 142.227 130.623 141.798 128.175 140.197C127.264 139.601 126.043 139.856 125.447 140.767C124.851 141.678 125.107 142.899 126.018 143.495C129.235 145.599 131.385 146.148 134.304 146.262V149.39C134.304 150.478 135.186 151.361 136.275 151.361C137.363 151.361 138.245 150.479 138.245 149.39V146.123C143.777 145.226 147.006 140.748 147.708 136.571C148.585 131.352 145.852 126.813 140.745 125.008ZM131.461 120.655C130.336 119.773 129.851 118.093 130.194 116.271C130.512 114.582 131.674 112.529 133.979 111.835C134.089 111.802 134.197 111.773 134.305 111.745V122.389C133.124 121.8 132.199 121.234 131.461 120.655ZM143.821 135.917C143.386 138.503 141.488 141.264 138.246 142.095V128.297C138.629 128.437 139.021 128.579 139.431 128.724C144.335 130.457 144.031 134.668 143.821 135.917Z" fill="white"/>
</svg>
