<svg width="259" height="259" viewBox="0 0 259 259" fill="none" xmlns="http://www.w3.org/2000/svg">
<circle cx="129.5" cy="129.5" r="129.5" fill="#B9EEFF"/>
<g clip-path="url(#clip0_55_159)">
<path d="M138.939 186.747C132.852 176.479 121.662 170.1 109.737 170.1C97.8105 170.1 86.6215 176.479 80.5341 186.747C77.7556 191.434 77.7126 197.068 80.4202 201.82C83.1515 206.615 88.0698 209.476 93.5782 209.476H125.894C131.402 209.476 136.322 206.615 139.052 201.82C141.76 197.07 141.717 191.434 138.939 186.747Z" fill="#19CFFC"/>
<path d="M109.741 170.1V209.476H125.9C131.408 209.476 136.326 206.615 139.057 201.821C141.765 197.07 141.722 191.434 138.944 186.747C132.856 176.479 121.667 170.1 109.741 170.1Z" fill="#4AB8F7"/>
<path d="M123.824 146.987C116.056 139.22 103.416 139.22 95.6484 146.987C87.8809 154.756 87.8809 167.395 95.6484 175.162C99.5322 179.046 104.634 180.989 109.737 180.989C114.838 180.989 119.94 179.046 123.824 175.162C127.587 171.401 129.658 166.396 129.658 161.076C129.66 155.753 127.587 150.75 123.824 146.987Z" fill="#FFD2BF"/>
<path d="M109.741 180.989C114.843 180.989 119.944 179.046 123.829 175.162C127.591 171.401 129.664 166.397 129.664 161.076C129.664 155.755 127.591 150.75 123.829 146.987C119.944 143.104 114.843 141.162 109.741 141.162V180.989Z" fill="#FFB89C"/>
<path d="M190.091 186.747C184.003 176.479 172.813 170.1 160.888 170.1C148.963 170.1 137.773 176.479 131.686 186.747C128.907 191.434 128.865 197.068 131.572 201.82C134.303 206.615 139.223 209.476 144.73 209.476H177.047C182.554 209.476 187.473 206.615 190.205 201.82C192.912 197.07 192.869 191.434 190.091 186.747Z" fill="#FFE45C"/>
<path d="M160.894 170.1V209.476H177.052C182.559 209.476 187.479 206.615 190.21 201.821C192.917 197.07 192.875 191.434 190.096 186.747C184.009 176.479 172.819 170.1 160.894 170.1Z" fill="#FFBC36"/>
<path d="M174.977 146.987C167.209 139.22 154.569 139.22 146.801 146.987C139.034 154.756 139.034 167.395 146.801 175.162C150.685 179.046 155.787 180.989 160.888 180.989C165.99 180.989 171.091 179.046 174.977 175.162C178.739 171.401 180.811 166.396 180.811 161.076C180.811 155.753 178.739 150.75 174.977 146.987Z" fill="#FFD2BF"/>
<path d="M160.894 180.989C165.995 180.989 171.097 179.046 174.981 175.162C178.744 171.401 180.817 166.397 180.817 161.076C180.817 155.755 178.744 150.75 174.981 146.987C171.097 143.104 165.995 141.162 160.894 141.162V180.989Z" fill="#FFB89C"/>
<path d="M113.364 111.231C107.276 100.962 96.0858 94.5834 84.1609 94.5834C72.2347 94.5834 61.0443 100.962 54.9583 111.231C52.1798 115.917 52.1368 121.552 54.8444 126.303C57.5757 131.097 62.494 133.96 68.0024 133.96H100.318C105.827 133.96 110.745 131.097 113.476 126.303C116.184 121.552 116.141 115.917 113.364 111.231Z" fill="#27488F"/>
<path d="M84.161 94.5834V133.96H100.318C105.827 133.96 110.746 131.098 113.476 126.303C116.184 121.552 116.141 115.917 113.364 111.231C107.276 100.962 96.0859 94.5834 84.161 94.5834Z" fill="#12254C"/>
<path d="M215.667 111.231C209.581 100.962 198.39 94.5834 186.464 94.5834C174.539 94.5834 163.349 100.962 157.261 111.231C154.484 115.917 154.441 121.552 157.149 126.303C159.88 131.097 164.798 133.96 170.307 133.96H202.623C208.131 133.96 213.049 131.097 215.781 126.303C218.488 121.552 218.445 115.917 215.667 111.231Z" fill="#19CFFC"/>
<path d="M200.552 71.4709C192.785 63.7019 180.145 63.7019 172.377 71.4709C164.61 79.2384 164.61 91.8784 172.377 99.646C176.261 103.53 181.363 105.471 186.464 105.471C191.567 105.471 196.669 103.53 200.552 99.646C204.315 95.883 206.387 90.8801 206.387 85.5591C206.388 80.2368 204.315 75.2339 200.552 71.4709Z" fill="#FFD2BF"/>
<path d="M98.2479 71.4709C90.4803 63.7019 77.8403 63.7019 70.0727 71.4709C66.3098 75.2339 64.238 80.2368 64.238 85.5577C64.238 90.8787 66.3098 95.883 70.0727 99.646C73.9565 103.53 79.0581 105.471 84.161 105.471C89.2625 105.471 94.3641 103.53 98.2479 99.646C102.011 95.883 104.083 90.8787 104.083 85.5577C104.084 80.2368 102.011 75.2339 98.2479 71.4709Z" fill="#FFD2BF"/>
<path d="M164.515 111.231C158.428 100.962 147.239 94.5834 135.313 94.5834C123.388 94.5834 112.197 100.962 106.11 111.231C103.331 115.917 103.29 121.552 105.996 126.303C108.727 131.097 113.647 133.96 119.154 133.96H151.471C156.978 133.96 161.898 131.097 164.629 126.303C167.335 121.552 167.294 115.917 164.515 111.231Z" fill="#FE6A16"/>
<path d="M84.161 105.471C89.2626 105.471 94.3641 103.53 98.2479 99.646C102.011 95.883 104.083 90.8787 104.083 85.5578C104.083 80.2368 102.011 75.2339 98.2479 71.4709C94.3641 67.5871 89.2626 65.6445 84.161 65.6445V105.471Z" fill="#FFB89C"/>
<path d="M186.474 94.5834V133.96H202.632C208.141 133.96 213.059 131.098 215.79 126.303C218.498 121.552 218.455 115.917 215.676 111.231C209.589 100.962 198.4 94.5834 186.474 94.5834Z" fill="#4AB8F7"/>
<path d="M149.401 71.4709C141.632 63.7019 128.993 63.7019 121.226 71.4709C113.458 79.2384 113.458 91.8784 121.226 99.646C125.109 103.53 130.211 105.471 135.312 105.471C140.414 105.471 145.516 103.53 149.401 99.646C153.162 95.883 155.235 90.8801 155.235 85.5591C155.235 80.2368 153.164 75.2339 149.401 71.4709Z" fill="#FFD2BF"/>
<path d="M186.474 105.471C191.575 105.471 196.678 103.53 200.562 99.646C204.325 95.883 206.397 90.8787 206.397 85.5578C206.397 80.2368 204.325 75.2339 200.562 71.4709C196.678 67.5871 191.575 65.6445 186.474 65.6445V105.471Z" fill="#FFB89C"/>
<path d="M135.318 94.5834V133.96H151.475C156.984 133.96 161.903 131.098 164.633 126.303C167.341 121.552 167.298 115.917 164.521 111.231C158.433 100.962 147.243 94.5834 135.318 94.5834Z" fill="#FF432E"/>
<path d="M135.318 105.471C140.42 105.471 145.521 103.53 149.405 99.646C153.168 95.883 155.24 90.8787 155.24 85.5578C155.24 80.2368 153.168 75.2339 149.405 71.4709C145.521 67.5871 140.42 65.6445 135.318 65.6445V105.471Z" fill="#FFB89C"/>
</g>
<defs>
<clipPath id="clip0_55_159">
<rect width="182" height="182" fill="white" transform="translate(50 66)"/>
</clipPath>
</defs>
</svg>
