<svg width="103" height="103" viewBox="0 0 103 103" fill="none" xmlns="http://www.w3.org/2000/svg">
<path fill-rule="evenodd" clip-rule="evenodd" d="M51.5 103C79.9427 103 103 79.9427 103 51.5C103 23.0573 79.9427 0 51.5 0C23.0573 0 0 23.0573 0 51.5C0 79.9427 23.0573 103 51.5 103ZM51.5 92C73.8675 92 92 73.8676 92 51.5C92 29.1324 73.8675 11 51.5 11C29.1325 11 11 29.1324 11 51.5C11 73.8676 29.1325 92 51.5 92Z" fill="#007ACC"/>
<circle cx="52" cy="52" r="36.5" stroke="#007ACC"/>
<path d="M52 26C51.1587 26 50.4766 26.6821 50.4766 27.5234V76.4766C50.4766 77.3179 51.1587 78 52 78C52.8413 78 53.5234 77.3179 53.5234 76.4766V27.5234C53.5234 26.6821 52.8413 26 52 26Z" fill="#007ACC"/>
<path d="M58.0938 33.8297C57.2524 33.8297 56.5703 34.5117 56.5703 35.3531V68.6468C56.5703 69.4881 57.2524 70.1702 58.0938 70.1702C58.9351 70.1702 59.6172 69.4881 59.6172 68.6468V35.3531C59.6172 34.5117 58.9351 33.8297 58.0938 33.8297Z" fill="#007ACC"/>
<path d="M64.1875 40.7708C63.3462 40.7708 62.6641 41.4528 62.6641 42.2942V61.7059C62.6641 62.5473 63.3462 63.2294 64.1875 63.2294C65.0288 63.2294 65.7109 62.5473 65.7109 61.7059V42.2942C65.7109 41.4527 65.0288 40.7708 64.1875 40.7708Z" fill="#007ACC"/>
<path d="M70.2812 44.5073C69.4399 44.5073 68.7578 45.1894 68.7578 46.0308V57.9692C68.7578 58.8106 69.4399 59.4927 70.2812 59.4927C71.1226 59.4927 71.8047 58.8106 71.8047 57.9692V46.0308C71.8047 45.1894 71.1226 44.5073 70.2812 44.5073Z" fill="#007ACC"/>
<path d="M76.375 47.5542C75.5337 47.5542 74.8516 48.2363 74.8516 49.0776V54.9224C74.8516 55.7637 75.5337 56.4458 76.375 56.4458C77.2163 56.4458 77.8984 55.7637 77.8984 54.9224V49.0776C77.8984 48.2363 77.2163 47.5542 76.375 47.5542Z" fill="#007ACC"/>
<path d="M45.9062 33.8297C45.0649 33.8297 44.3828 34.5117 44.3828 35.3531V68.6468C44.3828 69.4881 45.0649 70.1702 45.9062 70.1702C46.7476 70.1702 47.4297 69.4881 47.4297 68.6468V35.3531C47.4297 34.5117 46.7476 33.8297 45.9062 33.8297Z" fill="#007ACC"/>
<path d="M39.8125 40.7708C38.9712 40.7708 38.2891 41.4528 38.2891 42.2942V61.7059C38.2891 62.5473 38.9712 63.2294 39.8125 63.2294C40.6538 63.2294 41.3359 62.5473 41.3359 61.7059V42.2942C41.3359 41.4527 40.6538 40.7708 39.8125 40.7708Z" fill="#007ACC"/>
<path d="M33.7188 44.5073C32.8774 44.5073 32.1953 45.1894 32.1953 46.0308V57.9692C32.1953 58.8106 32.8774 59.4927 33.7188 59.4927C34.5601 59.4927 35.2422 58.8106 35.2422 57.9692V46.0308C35.2422 45.1894 34.5601 44.5073 33.7188 44.5073Z" fill="#007ACC"/>
<path d="M27.625 47.5542C26.7837 47.5542 26.1016 48.2363 26.1016 49.0776V54.9224C26.1016 55.7637 26.7837 56.4458 27.625 56.4458C28.4663 56.4458 29.1484 55.7637 29.1484 54.9224V49.0776C29.1484 48.2363 28.4663 47.5542 27.625 47.5542Z" fill="#007ACC"/>
</svg>
